<?xml version="1.0" encoding="UTF-8"?>
<svg version="1.1" xmlns="http://www.w3.org/2000/svg" width="467" height="467">
<path d="M0 0 C0.94193207 0.00054382 1.88386414 0.00108765 2.8543396 0.00164795 C26.4686973 0.06410327 48.61786596 3.26556528 71.1875 10.375 C71.93644531 10.60944824 72.68539063 10.84389648 73.45703125 11.08544922 C106.40409736 21.60031244 136.10544061 39.62825573 161.1875 63.375 C161.81076172 63.9642627 162.43402344 64.55352539 163.07617188 65.16064453 C173.56466945 75.16043964 182.81071442 85.55148624 191.1875 97.375 C191.62610352 97.9848877 192.06470703 98.59477539 192.51660156 99.22314453 C204.63703941 116.18524615 214.22309246 134.74405136 221.1875 154.375 C221.60056396 155.53563965 221.60056396 155.53563965 222.02197266 156.71972656 C225.27194356 166.02494765 227.80172577 175.44236149 229.9375 185.0625 C230.13625732 185.95171143 230.33501465 186.84092285 230.53979492 187.75708008 C233.74403146 202.90200779 234.59615062 217.75801155 234.5625 233.1875 C234.56168427 234.6003981 234.56168427 234.6003981 234.56085205 236.0418396 C234.49839673 259.6561973 231.29693472 281.80536596 224.1875 304.375 C223.95305176 305.12394531 223.71860352 305.87289063 223.47705078 306.64453125 C212.96218756 339.59159736 194.93424427 369.29294061 171.1875 394.375 C170.5982373 394.99826172 170.00897461 395.62152344 169.40185547 396.26367188 C159.40206036 406.75216945 149.01101376 415.99821442 137.1875 424.375 C136.5776123 424.81360352 135.96772461 425.25220703 135.33935547 425.70410156 C118.37725385 437.82453941 99.81844864 447.41059246 80.1875 454.375 C79.41374023 454.65037598 78.63998047 454.92575195 77.84277344 455.20947266 C68.53755235 458.45944356 59.12013851 460.98922577 49.5 463.125 C48.61078857 463.32375732 47.72157715 463.52251465 46.80541992 463.72729492 C31.66049221 466.93153146 16.80448845 467.78365062 1.375 467.75 C0.43306793 467.74945618 -0.50886414 467.74891235 -1.4793396 467.74835205 C-25.0936973 467.68589673 -47.24286596 464.48443472 -69.8125 457.375 C-70.93591797 457.02332764 -70.93591797 457.02332764 -72.08203125 456.66455078 C-105.02909736 446.14968756 -134.73044061 428.12174427 -159.8125 404.375 C-160.43576172 403.7857373 -161.05902344 403.19647461 -161.70117188 402.58935547 C-172.18966945 392.58956036 -181.43571442 382.19851376 -189.8125 370.375 C-190.25110352 369.7651123 -190.68970703 369.15522461 -191.14160156 368.52685547 C-203.26203941 351.56475385 -212.84809246 333.00594864 -219.8125 313.375 C-220.08787598 312.60124023 -220.36325195 311.82748047 -220.64697266 311.03027344 C-223.89694356 301.72505235 -226.42672577 292.30763851 -228.5625 282.6875 C-228.76125732 281.79828857 -228.96001465 280.90907715 -229.16479492 279.99291992 C-232.36903146 264.84799221 -233.22115062 249.99198845 -233.1875 234.5625 C-233.18695618 233.62056793 -233.18641235 232.67863586 -233.18585205 231.7081604 C-233.12339673 208.0938027 -229.92193472 185.94463404 -222.8125 163.375 C-222.57805176 162.62605469 -222.34360352 161.87710938 -222.10205078 161.10546875 C-211.58718756 128.15840264 -193.55924427 98.45705939 -169.8125 73.375 C-169.2232373 72.75173828 -168.63397461 72.12847656 -168.02685547 71.48632812 C-158.02706036 60.99783055 -147.63601376 51.75178558 -135.8125 43.375 C-135.2026123 42.93639648 -134.59272461 42.49779297 -133.96435547 42.04589844 C-117.00225385 29.92546059 -98.44344864 20.33940754 -78.8125 13.375 C-78.03874023 13.09962402 -77.26498047 12.82424805 -76.46777344 12.54052734 C-67.16255235 9.29055644 -57.74513851 6.76077423 -48.125 4.625 C-47.23578857 4.42624268 -46.34657715 4.22748535 -45.43041992 4.02270508 C-30.28549221 0.81846854 -15.42948845 -0.03365062 0 0 Z " fill="#FBFBFB" transform="translate(232.8125,-0.375)"/>
<path d="M0 0 C0.22139648 1.22291748 0.44279297 2.44583496 0.67089844 3.70581055 C1.51239171 8.35246824 2.35514975 12.99889589 3.19824219 17.64526367 C3.55925089 19.63576345 3.91994078 21.62632109 4.28027344 23.61694336 C6.35395821 35.07144516 8.44913664 46.52002923 10.684021 57.94438171 C12.09952882 65.26142077 13.13588721 72.5981918 14 80 C6.25065849 75.11852503 -1.39819388 70.10767078 -9 65 C-11.01722142 68.25545821 -12.76005474 71.5003296 -14.3125 75 C-14.74216064 75.9585791 -15.17182129 76.9171582 -15.61450195 77.90478516 C-16.30032349 79.4369165 -16.30032349 79.4369165 -17 81 C-33.39913977 117.06775415 -54.47752284 150.36250013 -82 179 C-82.52625977 179.54817383 -83.05251953 180.09634766 -83.59472656 180.66113281 C-99.32490312 196.94551407 -99.32490312 196.94551407 -104 199 C-110.23127195 197.51163887 -114.50398923 192.27356946 -119 188 C-120.11955078 186.95972656 -120.11955078 186.95972656 -121.26171875 185.8984375 C-127.36803375 180.04426836 -132.47759172 173.54319221 -137.59619141 166.8359375 C-139.01738916 164.977258 -140.45034746 163.12822183 -141.88671875 161.28125 C-142.79974278 160.10437113 -143.71251315 158.92729541 -144.625 157.75 C-145.05095459 157.20118164 -145.47690918 156.65236328 -145.91577148 156.08691406 C-148.88407865 152.2318427 -148.88407865 152.2318427 -150 150 C-150.66 150 -151.32 150 -152 150 C-153.58201357 152.19960733 -155.05125837 154.40208307 -156.5 156.6875 C-161.31723719 164.09755202 -166.4996709 171.08682385 -172 178 C-172.70511719 178.89976562 -173.41023437 179.79953125 -174.13671875 180.7265625 C-183.81702578 192.85825967 -194.77269342 203.86519776 -205.6875 214.875 C-206.54182617 215.74237793 -207.39615234 216.60975586 -208.27636719 217.50341797 C-216.37026734 225.60817617 -225.12707151 232.81474956 -234.375 239.5625 C-235.32451538 240.25545166 -235.32451538 240.25545166 -236.29321289 240.96240234 C-242.32905429 245.31629719 -248.56843649 249.25447229 -255 253 C-255.61456055 253.35803711 -256.22912109 253.71607422 -256.86230469 254.08496094 C-269.75815186 261.56053247 -282.96899958 268.26253325 -296.5625 274.375 C-297.30032715 274.70894775 -298.0381543 275.04289551 -298.79833984 275.38696289 C-303.14081101 277.30985938 -307.40279575 278.80388116 -312 280 C-308.95237617 276.69534765 -305.7635492 274.46896816 -301.9375 272.125 C-287.35841899 262.96810135 -273.87164019 252.40546661 -261 241 C-259.54183738 239.74980087 -258.08353245 238.49976765 -256.625 237.25 C-253.26037958 234.30058806 -250.13122267 231.15106868 -246.99609375 227.9609375 C-245.08488381 226.08338879 -243.10965365 224.35190586 -241.0625 222.625 C-237.22010807 219.31130929 -233.8996219 215.67295114 -230.55078125 211.8671875 C-228.13950142 209.15680558 -225.67741395 206.50676275 -223.19238281 203.86450195 C-217.17309176 197.45532895 -211.43998894 190.91405045 -206 184 C-205.49919922 183.36642578 -204.99839844 182.73285156 -204.48242188 182.08007812 C-200.27774848 176.7534966 -196.12357425 171.38957423 -192 166 C-191.41524902 165.23623047 -190.83049805 164.47246094 -190.22802734 163.68554688 C-175.862897 144.82102812 -163.6318546 124.85673535 -152.19824219 104.1027832 C-151.20438359 102.35867072 -150.11350911 100.67026367 -149 99 C-145.62206085 100.41380809 -143.96283397 101.99111673 -141.8203125 104.9375 C-141.22822998 105.7411499 -140.63614746 106.5447998 -140.02612305 107.37280273 C-139.39875244 108.23977783 -138.77138184 109.10675293 -138.125 110 C-136.78136199 111.82526055 -135.43627785 113.64945731 -134.08984375 115.47265625 C-133.40905762 116.3970752 -132.72827148 117.32149414 -132.02685547 118.27392578 C-128.97593233 122.37734758 -125.83879968 126.41093621 -122.6875 130.4375 C-122.11306152 131.17299072 -121.53862305 131.90848145 -120.94677734 132.66625977 C-119.83053945 134.09544808 -118.71401248 135.52441067 -117.59716797 136.953125 C-115.13697791 140.10601914 -112.69083466 143.26960821 -110.25 146.4375 C-109.47140625 147.44683594 -108.6928125 148.45617187 -107.890625 149.49609375 C-106.53677906 151.28910046 -105.24625863 153.13061205 -104 155 C-103.01 155.33 -102.02 155.66 -101 156 C-100.77957031 155.45601562 -100.55914062 154.91203125 -100.33203125 154.3515625 C-98.57086976 151.24241523 -96.16454794 148.91128857 -93.6875 146.375 C-86.26156643 138.52672775 -80.06496871 129.92323661 -74 121 C-73.50000488 120.26571777 -73.00000977 119.53143555 -72.48486328 118.77490234 C-58.87088227 98.54469713 -48.14210832 76.56504515 -39 54 C-39.69222656 54.01160156 -40.38445312 54.02320313 -41.09765625 54.03515625 C-49.44788961 54.11216762 -57.67891834 53.63658548 -66 53 C-66 52.34 -66 51.68 -66 51 C-64.15625 49.51171875 -64.15625 49.51171875 -61.5 47.6875 C-50.443376 39.83857436 -40.12975456 31.0256313 -29.87011719 22.17333984 C-25.01115826 17.98761016 -20.05400617 13.94868053 -15 10 C-14.18039795 9.35272949 -14.18039795 9.35272949 -13.34423828 8.69238281 C-11.56699092 7.28952401 -9.78425004 5.89393768 -8 4.5 C-7.43531006 4.05382324 -6.87062012 3.60764648 -6.28881836 3.14794922 C-2.22916462 0 -2.22916462 0 0 0 Z " fill="#95B845" transform="translate(368,56)"/>
<path d="M0 0 C17.89177695 16.21442286 28.18541751 42.16541033 34.4050293 64.96508789 C35.03175949 67.10862344 35.76072463 69.19888905 36.50390625 71.3046875 C49.52545996 110.07584695 44.4875443 163.55982616 26.61328125 199.81640625 C26.08089844 200.86699219 25.54851562 201.91757812 25 203 C24.40767671 204.23709709 23.81795465 205.47544211 23.23046875 206.71484375 C15.64630768 222.54616518 6.81269305 236.98840675 -5 250 C-5.76054687 250.86882812 -6.52109375 251.73765625 -7.3046875 252.6328125 C-36.64821578 285.94450474 -74.7772323 307.14116684 -118 317 C-118.75619629 317.17789062 -119.51239258 317.35578125 -120.29150391 317.5390625 C-170.20138692 328.72136125 -223.44113044 314.82731911 -266.359375 288.9765625 C-287.76867977 275.10016126 -308.7028967 256.99767707 -322 235 C-322 234.34 -322 233.68 -322 233 C-304.74125232 231.2037839 -304.74125232 231.2037839 -298.69140625 235.16796875 C-296.19643242 237.98989702 -294.07178773 240.85674225 -292 244 C-265.9455417 276.95303828 -219.17596822 296.83219449 -178.41357422 301.69091797 C-161.00900883 303.26681411 -143.23846159 302.79735289 -126.0859375 299.40576172 C-124.1168648 299.02273283 -122.13654467 298.69889289 -120.15625 298.37890625 C-104.77773483 295.7336702 -89.89282515 290.01288542 -76 283 C-75.34966797 282.67805664 -74.69933594 282.35611328 -74.02929688 282.02441406 C-31.19521493 260.72646692 0.84345358 223.23859059 16.375 178 C19.55861234 168.20981828 21.36752372 158.14584006 23 148 C23.17789063 146.95295898 23.17789063 146.95295898 23.359375 145.88476562 C28.75805108 113.58911408 24.63078741 70.72862539 6.8203125 42.42578125 C4.64631596 38.33437575 4.24703512 35.11445781 3.9375 30.5625 C3.2760248 23.02903246 2.11060782 15.75993202 0.5859375 8.35546875 C0.08224082 5.47096574 -0.12214518 2.91482809 0 0 Z " fill="#254A86" transform="translate(388,112)"/>
<path d="M0 0 C1.94367867 0.45324791 3.88770378 0.90501216 5.83203125 1.35546875 C26.1951333 6.22115042 48.31318107 13.97913521 65 27 C63.76378176 30.70865471 62.21090661 31.7572654 59.1875 34.1875 C57.87845703 35.26064453 57.87845703 35.26064453 56.54296875 36.35546875 C54 38 54 38 50 38 C47.625 37.06958008 47.625 37.06958008 45 35.76953125 C43.55584717 35.06316528 43.55584717 35.06316528 42.08251953 34.3425293 C41.06528809 33.83761963 40.04805664 33.33270996 39 32.8125 C36.89394983 31.7927811 34.78718761 30.77453138 32.6796875 29.7578125 C31.73335449 29.29777832 30.78702148 28.83774414 29.81201172 28.36376953 C16.99672004 22.14860897 3.88074967 19.01013224 -10 16 C-11.23907104 15.69872192 -11.23907104 15.69872192 -12.50317383 15.39135742 C-21.17180958 13.48417253 -29.9537085 13.66329277 -38.78540039 13.68432617 C-41.53247574 13.68746569 -44.27844928 13.66403583 -47.02539062 13.63867188 C-58.63760689 13.59644326 -69.63701593 14.60558635 -81 17 C-82.02085693 17.21374268 -83.04171387 17.42748535 -84.09350586 17.64770508 C-118.02765816 25.35733086 -147.17359975 43.03562754 -172 67 C-172.70125 67.63808594 -173.4025 68.27617188 -174.125 68.93359375 C-200.62040558 93.71783772 -217.84362669 131.52269911 -223 167 C-223.20367187 168.26972656 -223.40734375 169.53945312 -223.6171875 170.84765625 C-228.66048099 204.79915809 -222.91362307 238.20655403 -208.89575195 269.28808594 C-208.52023193 270.12243164 -208.14471191 270.95677734 -207.7578125 271.81640625 C-207.4189502 272.55318604 -207.08008789 273.28996582 -206.73095703 274.04907227 C-206 276 -206 276 -206 279 C-208.51953125 281.078125 -208.51953125 281.078125 -211.8125 283.25 C-212.89144531 283.97703125 -213.97039062 284.7040625 -215.08203125 285.453125 C-216.04496094 285.96359375 -217.00789063 286.4740625 -218 287 C-221 286 -221 286 -222.83203125 282.52734375 C-223.50522827 281.00308896 -224.16446631 279.4726219 -224.8125 277.9375 C-225.3391626 276.70858032 -225.3391626 276.70858032 -225.87646484 275.45483398 C-226.59257985 273.76917684 -227.30220851 272.08074959 -228.00537109 270.38964844 C-228.61369879 268.92810904 -229.22942738 267.46958793 -229.85791016 266.01660156 C-246.24593127 228.07289036 -246.42532437 181.5045327 -236 142 C-235.66355469 140.68950684 -235.66355469 140.68950684 -235.3203125 139.35253906 C-227.88859147 111.44917907 -211.60435413 84.44504572 -192.125 63.30859375 C-190.16362106 61.17775744 -188.26305255 59.00820396 -186.375 56.8125 C-156.17872886 22.34187085 -109.34441 0.17409623 -63.97729492 -3.83007812 C-42.57086897 -5.05179788 -20.86763518 -5.29596803 0 0 Z " fill="#21729E" transform="translate(273,38)"/>
<path d="M0 0 C1.62381446 0.00186816 3.24762948 0.00329018 4.8714447 0.00428772 C9.11776319 0.00808156 13.36404675 0.01788462 17.61035156 0.0289917 C21.95442228 0.03927364 26.29849871 0.04379979 30.64257812 0.04882812 C39.14584925 0.0595101 47.64909214 0.07654829 56.15234375 0.09765625 C55.02406403 3.55794548 53.96126263 6.74945812 52.0859375 9.875 C51.68181641 10.55498047 51.27769531 11.23496094 50.86132812 11.93554688 C50.23194336 12.97485352 50.23194336 12.97485352 49.58984375 14.03515625 C49.00106445 15.02225586 49.00106445 15.02225586 48.40039062 16.02929688 C47.52667768 17.491846 46.62346046 18.93699513 45.69848633 20.36767578 C44.42978961 22.6077779 43.58758464 24.56746535 42.72143555 26.96435547 C40.9320371 31.38712966 39.09696444 35.24343384 35.15234375 38.09765625 C26.86160531 40.69782338 17.65139244 39.68963132 9.08984375 39.34765625 C5.52349439 39.269063 1.95768647 39.2116599 -1.60923767 39.16668701 C-3.82130622 39.1319262 -6.03317238 39.07423576 -8.24391174 38.99005127 C-14.5738895 38.81092623 -19.1062491 39.35205404 -24.84765625 42.09765625 C-27.154078 44.28125081 -27.74527375 45.41070267 -28.2109375 48.53515625 C-28.19417969 49.38078125 -28.17742187 50.22640625 -28.16015625 51.09765625 C-28.15435547 52.36609375 -28.15435547 52.36609375 -28.1484375 53.66015625 C-27.81809889 56.33718601 -27.37516429 57.87412772 -25.84765625 60.09765625 C-15.99469076 66.94208266 -3.06327546 70.17847698 8.15234375 74.09765625 C6.28137325 78.03996321 3.79337614 81.31938607 1.08984375 84.72265625 C0.35882446 85.64872681 0.35882446 85.64872681 -0.38696289 86.59350586 C-4.04889388 91.19133652 -7.87766695 95.60292013 -11.875 99.9140625 C-13.97033084 102.23344852 -15.91711839 104.64021544 -17.84765625 107.09765625 C-34.34498685 103.60923392 -54.1846287 95.62183877 -63.84765625 81.09765625 C-69.14771628 71.94839061 -71.19602572 63.80925968 -71.16015625 53.28515625 C-71.17626953 52.35123047 -71.19238281 51.41730469 -71.20898438 50.45507812 C-71.21827471 37.06771053 -66.20271186 25.99064847 -57.14453125 16.234375 C-41.02364698 1.23756599 -20.81691881 -0.07071397 0 0 Z " fill="#1E6B9F" transform="translate(158.84765625,147.90234375)"/>
<path d="M0 0 C0.33 0 0.66 0 1 0 C1 64.68 1 129.36 1 196 C-12.53 196 -26.06 196 -40 196 C-40.24912757 179.43946236 -40.45140437 162.88054469 -40.56993389 146.31864834 C-40.62645291 138.62719169 -40.7033834 130.93698906 -40.82983398 123.24633789 C-40.94010603 116.53640892 -41.01058665 109.82738866 -41.03497344 103.11657864 C-41.04921188 99.56864817 -41.08221684 96.02331522 -41.16303062 92.4762249 C-41.75816292 65.31548847 -41.75816292 65.31548847 -31.7098999 54.75038147 C-30.81563293 53.84275558 -29.92136597 52.9351297 -29 52 C-27.78892089 50.28131969 -26.61169745 48.53700119 -25.50390625 46.75 C-25.01398193 45.96842529 -24.52405762 45.18685059 -24.01928711 44.3815918 C-23.29817749 43.20270386 -23.29817749 43.20270386 -22.5625 42 C-22.02955322 41.13479736 -21.49660645 40.26959473 -20.94750977 39.37817383 C-13.22843425 26.65471018 -6.63219447 13.31120444 0 0 Z " fill="#7BB14B" transform="translate(357,140)"/>
<path d="M0 0 C8.58360131 1.09808233 16.30671145 8.52754997 22.1484375 14.59765625 C31.17066292 26.30370822 34.85842373 40.42983279 33 55 C30.93918454 64.04870725 26.88965484 72.82559202 21 80 C20.4740625 80.67160156 19.948125 81.34320313 19.40625 82.03515625 C8.72212576 94.1953766 -10.22758321 99.8032202 -25.89024353 101.2708168 C-33.23242227 101.67354555 -40.57235071 101.57653809 -47.921875 101.48828125 C-50.24740835 101.47892802 -52.57295171 101.47182382 -54.89849854 101.46684265 C-60.94838827 101.44797036 -66.99765473 101.39904517 -73.04730225 101.34332275 C-79.24889704 101.29169817 -85.45059492 101.26923733 -91.65234375 101.24414062 C-103.76849941 101.19090308 -115.8841974 101.10583688 -128 101 C-125.33042944 98.95299282 -122.89608735 97.37244633 -119.796875 96.0546875 C-118.98976074 95.70494873 -118.18264648 95.35520996 -117.35107422 94.99487305 C-116.49271973 94.62531494 -115.63436523 94.25575684 -114.75 93.875 C-98.5241089 86.70463733 -80.06974567 77.89567368 -67.30249023 65.34912109 C-63.49593142 62.16308534 -59.98202113 62.4050149 -55.19921875 62.6171875 C-54.36340775 62.63137726 -53.52759674 62.64556702 -52.66645813 62.66018677 C-50.00562946 62.70780432 -47.34733135 62.78863087 -44.6875 62.875 C-42.03857875 62.95089755 -39.39023043 63.0189924 -36.74067688 63.06838989 C-35.09737219 63.09994238 -33.45425809 63.14666157 -31.81193542 63.2116394 C-24.73238077 63.36393022 -18.51886846 62.09905705 -13 57.5 C-10.02543933 53.78179917 -9.85516786 50.80678031 -9.671875 46.1328125 C-10.13825684 43.10133054 -11.1286514 41.44005413 -13 39 C-16.1391176 36.90183967 -16.1391176 36.90183967 -19.6875 35.1875 C-20.29400391 34.87619141 -20.90050781 34.56488281 -21.52539062 34.24414062 C-23.01075619 33.48391416 -24.50457634 32.74024538 -26 32 C-24.66000502 28.993182 -23.20154709 27.00237391 -20.8125 24.75 C-13.03562485 17.16514646 -6.54499362 8.63886481 0 0 Z " fill="#223B7E" transform="translate(203,235)"/>
<path d="M0 0 C0.33 0 0.66 0 1 0 C1 32.34 1 64.68 1 98 C-12.53 98 -26.06 98 -40 98 C-40 71.93 -40 45.86 -40 19 C-36 21 -36 21 -33.5625 22.6875 C-30.34472944 24.33562638 -29.41340996 24.06576973 -26 23 C-17.13075614 17.36031776 -9.7435306 10.01835693 -2.484375 2.4921875 C-1.66453125 1.66976562 -0.8446875 0.84734375 0 0 Z " fill="#204786" transform="translate(292,238)"/>
<path d="M0 0 C1.18239258 0.02707031 1.18239258 0.02707031 2.38867188 0.0546875 C4.32214261 0.10155952 6.25498285 0.1732959 8.1875 0.25 C-4.55769762 13.24826111 -19.22419098 23.23281352 -35.44213867 31.38305664 C-39.28395691 33.09554504 -39.28395691 33.09554504 -41.8125 36.25 C-48.29154119 37.45346676 -54.74160587 37.36855093 -61.3125 37.3125 C-62.32570313 37.30798828 -63.33890625 37.30347656 -64.3828125 37.29882812 C-66.85943827 37.28714593 -69.33593657 37.27076582 -71.8125 37.25 C-69.18033496 35.161579 -66.69844925 33.6181357 -63.609375 32.3046875 C-62.80226074 31.95494873 -61.99514648 31.60520996 -61.16357422 31.24487305 C-60.30521973 30.87531494 -59.44686523 30.50575684 -58.5625 30.125 C-42.36101462 22.96542244 -24.3047898 14.1944329 -11.34375 1.91015625 C-7.62012206 -0.532038 -4.34497763 -0.18938712 0 0 Z " fill="#191E4F" transform="translate(146.8125,298.75)"/>
<path d="M0 0 C0.33 0 0.66 0 1 0 C2.25152306 10.31016619 -0.93412585 17.81323566 -5.10473633 26.95898438 C-6.29123468 29.66395472 -7.30653442 32.42017668 -8.32348633 35.19238281 C-9.18862396 37.50399559 -10.16897852 39.75222847 -11.1875 42 C-11.53167969 42.763125 -11.87585938 43.52625 -12.23046875 44.3125 C-12.48441406 44.869375 -12.73835938 45.42625 -13 46 C-13.66 46 -14.32 46 -15 46 C-15.33837891 47.21623047 -15.33837891 47.21623047 -15.68359375 48.45703125 C-17.32865232 52.8845331 -19.58555842 56.67994963 -22.0625 60.6875 C-22.548396 61.47753418 -23.03429199 62.26756836 -23.53491211 63.08154297 C-27.50353168 69.42330509 -31.68193171 75.69361977 -37 81 C-37.66 81 -38.32 81 -39 81 C-40.02093206 73.1522293 -40.56921962 66.21947462 -35.72607422 59.57836914 C-33.71896083 57.07103734 -31.682254 54.58877946 -29.64257812 52.10791016 C-26.64905617 48.2663423 -24.11325811 44.1435896 -21.5625 40 C-21.02423584 39.12698242 -20.48597168 38.25396484 -19.93139648 37.35449219 C-12.60755911 25.27578082 -6.28819931 12.63970264 0 0 Z " fill="#849D3E" transform="translate(356,142)"/>
<path d="M0 0 C0.77860736 4.53466696 0.93119457 8.47705493 0 13 C-3.30904343 17.56877034 -7.47559512 20.73158507 -12 24 C-12.64678711 24.48227051 -13.29357422 24.96454102 -13.95996094 25.46142578 C-15.93306915 26.920794 -17.92634262 28.34360842 -19.9375 29.75 C-20.56342041 30.19303467 -21.18934082 30.63606934 -21.83422852 31.0925293 C-24.56671713 32.90256909 -26.3759032 34.02615435 -29.703125 33.88671875 C-33.39337226 32.46208248 -36.4891636 31.16337015 -39 28 C-39.594424 24.58988338 -39.41892191 21.42452039 -39 18 C-36.0280615 19.12451727 -33.66559313 20.22293791 -31 22 C-26.38646076 21.79669149 -23.36393368 19.39953547 -19.875 16.625 C-19.31385498 16.18816895 -18.75270996 15.75133789 -18.17456055 15.30126953 C-13.09743851 11.2604554 -8.59882057 6.7633213 -4.14453125 2.0546875 C-2 0 -2 0 0 0 Z " fill="#1B4376" transform="translate(292,240)"/>
<path d="M0 0 C2.475 0.495 2.475 0.495 5 1 C5.71484375 3.2109375 5.71484375 3.2109375 6 6 C4.62890625 8.2890625 4.62890625 8.2890625 2.5625 10.625 C-0.48822216 14.19657716 -3.34689173 17.79120009 -6.0625 21.625 C-9.44860924 26.33873227 -13.07917821 30.72385374 -17 35 C-20.33822957 34.38550003 -23.02209492 33.65439171 -26 32 C-24.66000502 28.993182 -23.20154709 27.00237391 -20.8125 24.75 C-13.03562485 17.16514646 -6.54499362 8.63886481 0 0 Z " fill="#1A3D70" transform="translate(203,235)"/>
<path d="M0 0 C5.96586327 2.46297108 9.8993956 7.49431462 13 13 C13.72390015 17.77579766 13.56594774 22.21389876 13 27 C12.113125 26.195625 11.22625 25.39125 10.3125 24.5625 C4.89802957 19.89755337 -1.08926425 15.999746 -7 12 C-5.27687791 7.33790798 -2.95555839 3.96667047 0 0 Z " fill="#214177" transform="translate(216,217)"/>
<path d="M0 0 C0.33 0 0.66 0 1 0 C1 52.14 1 104.28 1 158 C0.67 158 0.34 158 0 158 C-0.33 112.79 -0.66 67.58 -1 21 C-1.99 21.99 -2.98 22.98 -4 24 C-3.46204308 21.66885333 -2.8173596 19.51962129 -1.96484375 17.27734375 C-0.91835494 13.72267123 -0.83199871 10.88004513 -0.9375 7.1875 C-0.99108634 5.12559099 -1.02065452 3.0625018 -1 1 C-0.67 0.67 -0.34 0.34 0 0 Z " fill="#A6C37D" transform="translate(357,140)"/>
<path d="M0 0 C0.66 0.33 1.32 0.66 2 1 C-1.3 3.97 -4.6 6.94 -8 10 C-5.88214887 11.11785113 -5.88214887 11.11785113 -3 12 C-10.29942977 15.80155202 -17.62480713 19.39775293 -25.25 22.5 C-25.89332275 22.76699707 -26.53664551 23.03399414 -27.19946289 23.30908203 C-28.7759475 23.93594606 -30.38634251 24.47619495 -32 25 C-32.66 24.67 -33.32 24.34 -34 24 C-33.30777344 23.54898926 -33.30777344 23.54898926 -32.6015625 23.08886719 C-21.41962925 15.77972801 -10.59263365 8.13929888 0 0 Z " fill="#32B258" transform="translate(90,311)"/>
<path d="M0 0 C0.33 0.99 0.66 1.98 1 3 C0.34773438 3.71285156 -0.30453125 4.42570313 -0.9765625 5.16015625 C-1.85054687 6.11792969 -2.72453125 7.07570312 -3.625 8.0625 C-4.08068359 8.56112549 -4.53636719 9.05975098 -5.00585938 9.57348633 C-7.57232938 12.39250791 -10.07036621 15.25018154 -12.5 18.1875 C-13.325 19.115625 -14.15 20.04375 -15 21 C-15.66 21 -16.32 21 -17 21 C-17.2475 21.7425 -17.495 22.485 -17.75 23.25 C-20.26670205 28.78674451 -25.13914505 31.63479273 -30 35 C-28.5158627 31.51345524 -26.53785948 29.35808928 -23.8125 26.75 C-19.64173296 22.66529641 -15.78266035 18.44208965 -12 14 C-10.96655109 12.79522517 -9.93265684 11.59083228 -8.8984375 10.38671875 C-5.92858961 6.92763736 -2.96340367 3.4646033 0 0 Z " fill="#51B05F" transform="translate(163,239)"/>
<path d="M0 0 C0 3 0 3 -2.01953125 5.3828125 C-2.94121094 6.28773438 -3.86289063 7.19265625 -4.8125 8.125 C-5.30081299 8.60493408 -5.78912598 9.08486816 -6.29223633 9.5793457 C-11.25811429 14.38654407 -16.55989566 18.73840956 -22 23 C-22.66 22.67 -23.32 22.34 -24 22 C-7.94924527 6.93673978 -7.94924527 6.93673978 0 0 Z " fill="#3EAD5B" transform="translate(127,279)"/>
<path d="M0 0 C0.33 0 0.66 0 1 0 C1 15.18 1 30.36 1 46 C0.67 46 0.34 46 0 46 C-0.33 37.75 -0.66 29.5 -1 21 C-1.99 21.99 -2.98 22.98 -4 24 C-3.46204308 21.66885333 -2.8173596 19.51962129 -1.96484375 17.27734375 C-0.91835494 13.72267123 -0.83199871 10.88004513 -0.9375 7.1875 C-0.99108634 5.12559099 -1.02065452 3.0625018 -1 1 C-0.67 0.67 -0.34 0.34 0 0 Z " fill="#C1C552" transform="translate(357,140)"/>
<path d="M0 0 C0.66 0.33 1.32 0.66 2 1 C-5.54105554 10.78222906 -13.20104489 20.2994672 -22 29 C-22 25 -22 25 -20.50390625 23.3671875 C-19.86324219 22.87476563 -19.22257813 22.38234375 -18.5625 21.875 C-15.83429715 19.81128519 -15.83429715 19.81128519 -14 17 C-13.34 17 -12.68 17 -12 17 C-11.7421875 16.27425781 -11.484375 15.54851562 -11.21875 14.80078125 C-9.94757501 11.87952333 -8.45983598 9.69127351 -6.5 7.1875 C-5.58734375 6.00220703 -5.58734375 6.00220703 -4.65625 4.79296875 C-3.83640625 3.90544922 -3.83640625 3.90544922 -3 3 C-2.34 3 -1.68 3 -1 3 C-0.67 2.01 -0.34 1.02 0 0 Z " fill="#69B45F" transform="translate(201,224)"/>
<path d="M0 0 C-1.3584202 3.04332765 -2.88463024 5.12309151 -5.2578125 7.453125 C-5.88300781 8.071875 -6.50820312 8.690625 -7.15234375 9.328125 C-7.80332031 9.96234375 -8.45429687 10.5965625 -9.125 11.25 C-9.78371094 11.8996875 -10.44242187 12.549375 -11.12109375 13.21875 C-12.74296643 14.81711727 -14.3693281 16.41061897 -16 18 C-16.66 17.67 -17.32 17.34 -18 17 C-16.27227744 15.10283355 -14.54287266 13.20724695 -12.8125 11.3125 C-12.32974609 10.78205078 -11.84699219 10.25160156 -11.34960938 9.70507812 C-2.47809624 0 -2.47809624 0 0 0 Z " fill="#287BAA" transform="translate(99,84)"/>
<path d="M0 0 C0.66 1.32 1.32 2.64 2 4 C-0.9643761 5.97625073 -3.78787746 7.29886906 -7.0625 8.6875 C-8.12597656 9.14511719 -9.18945312 9.60273438 -10.28515625 10.07421875 C-11.18105469 10.37972656 -12.07695313 10.68523437 -13 11 C-13.66 10.67 -14.32 10.34 -15 10 C-10.05 6.7 -5.1 3.4 0 0 Z " fill="#3DB363" transform="translate(71,325)"/>
<path d="M0 0 C0.99 0.33 1.98 0.66 3 1 C1.21526335 3.17272288 -0.57719352 5.33813771 -2.375 7.5 C-2.88289062 8.12003906 -3.39078125 8.74007812 -3.9140625 9.37890625 C-5.23207606 10.95705407 -6.61212632 12.48292487 -8 14 C-8.66 14 -9.32 14 -10 14 C-8.69386058 10.08158173 -7.16870152 7.67359191 -4 5 C-3.34 5 -2.68 5 -2 5 C-1.34 3.35 -0.68 1.7 0 0 Z " fill="#2E4F8C" transform="translate(149,241)"/>
<path d="M0 0 C0.99 0 1.98 0 3 0 C1.41332422 3.90285767 -1.13350481 6.33520982 -4.125 9.25 C-5.03507813 10.14203125 -5.94515625 11.0340625 -6.8828125 11.953125 C-7.58148438 12.62859375 -8.28015625 13.3040625 -9 14 C-9 11 -9 11 -8 9 C-7.34 9 -6.68 9 -6 9 C-5.34 7.35 -4.68 5.7 -4 4 C-3.01 4 -2.02 4 -1 4 C-0.67 2.68 -0.34 1.36 0 0 Z " fill="#49AE58" transform="translate(175,253)"/>
<path d="M0 0 C0.99 0.33 1.98 0.66 3 1 C5.56634861 1.22718496 8.11678107 1.41608184 10.6875 1.5625 C11.7403418 1.62727539 11.7403418 1.62727539 12.81445312 1.69335938 C14.54275206 1.7991736 16.2713511 1.90006581 18 2 C18 2.33 18 2.66 18 3 C10.74 3 3.48 3 -4 3 C-2.68 2.01 -1.36 1.02 0 0 Z " fill="#373A66" transform="translate(79,333)"/>
<path d="M0 0 C0.66 0.99 1.32 1.98 2 3 C1.54625 3.886875 1.0925 4.77375 0.625 5.6875 C-0.72004299 8.42931841 -1.91038715 11.15024331 -3 14 C-3.66 14 -4.32 14 -5 14 C-3.45730076 9.27934033 -1.92205381 4.58335908 0 0 Z " fill="#C5BE45" transform="translate(329,110)"/>
<path d="M0 0 C0 3 0 3 -1.53125 4.60546875 C-2.1809375 5.12753906 -2.830625 5.64960938 -3.5 6.1875 C-4.1496875 6.71730469 -4.799375 7.24710938 -5.46875 7.79296875 C-5.9740625 8.19128906 -6.479375 8.58960938 -7 9 C-7 6 -7 6 -5.46875 4.39453125 C-4.49421875 3.61142578 -4.49421875 3.61142578 -3.5 2.8125 C-2.8503125 2.28269531 -2.200625 1.75289062 -1.53125 1.20703125 C-1.0259375 0.80871094 -0.520625 0.41039062 0 0 Z " fill="#2676A9" transform="translate(106,161)"/>
<path d="M0 0 C0.33 0 0.66 0 1 0 C1 4.62 1 9.24 1 14 C-0.32 13.01 -1.64 12.02 -3 11 C-3 10.34 -3 9.68 -3 9 C-2.34 9 -1.68 9 -1 9 C-0.67 6.03 -0.34 3.06 0 0 Z " fill="#5D7194" transform="translate(228,230)"/>
<path d="M0 0 C0.66 0.33 1.32 0.66 2 1 C1.071875 1.8971875 1.071875 1.8971875 0.125 2.8125 C-2.13676954 5.00811144 -2.13676954 5.00811144 -4 8 C-5.32 7.67 -6.64 7.34 -8 7 C-5.36 4.69 -2.72 2.38 0 0 Z " fill="#CEC13F" transform="translate(324,90)"/>
<path d="M0 0 C0 4.38968456 -2.12805101 5.76905739 -5 9 C-5.33 7.68 -5.66 6.36 -6 5 C-4.02 3.35 -2.04 1.7 0 0 Z " fill="#54B15E" transform="translate(185,244)"/>
</svg>
